<?xml version="1.0" encoding="UTF-8"?>
<svg id="Layer_2" xmlns="http://www.w3.org/2000/svg" viewBox="0 0 80.16 80.16">
  <defs>
    <style>
      .cls-1 {
        fill: #fff;
      }
    </style>
  </defs>
  <g id="Layer_1-2" data-name="Layer_1">
    <g>
      <path class="cls-1" d="M75.15,15.03V5.01h-5.01V0h-5.01v5.01h-5.01V0h-10.02v5.01h-5.01V0h-10.02v5.01h-5.01V0h-10.02v5.01h-5.01v15.03H5.01v5.01H0v25.05h5.01v5.01h5.01v5.01h5.01v5.01h5.01v15.03h50.1v-15.03h5.01v-15.03h5.01V15.03h-5.01Z"/>
      <g>
        <polygon points="70.14 15.03 75.15 15.03 75.15 10.02 75.15 5.01 70.14 5.01 70.14 10.02 70.14 15.03"/>
        <polygon points="60.12 15.03 65.13 15.03 65.13 10.02 65.13 5.01 60.12 5.01 60.12 10.02 60.12 15.03"/>
        <polygon points="45.09 15.03 50.1 15.03 50.1 10.02 50.1 5.01 45.09 5.01 45.09 10.02 45.09 15.03"/>
        <rect x="75.15" y="15.03" width="5.01" height="35.07"/>
        <rect x="70.14" y="50.1" width="5.01" height="15.03"/>
        <polygon points="65.13 75.15 25.05 75.15 25.05 65.13 20.04 65.13 20.04 75.15 20.04 80.16 65.13 80.16 70.14 80.16 70.14 65.13 65.13 65.13 65.13 75.15"/>
        <polygon points="15.03 25.05 15.03 30.06 15.03 35.07 20.04 35.07 20.04 30.06 20.04 25.05 20.04 20.04 20.04 15.03 20.04 10.02 20.04 5.01 15.03 5.01 15.03 10.02 15.03 15.03 15.03 20.04 10.02 20.04 5.01 20.04 5.01 25.05 10.02 25.05 15.03 25.05"/>
        <polygon points="30.06 15.03 35.07 15.03 35.07 10.02 35.07 5.01 30.06 5.01 30.06 10.02 30.06 15.03"/>
        <polygon points="30.06 5.01 30.06 0 25.05 0 20.04 0 20.04 5.01 25.05 5.01 30.06 5.01"/>
        <polygon points="45.09 5.01 45.09 0 40.08 0 35.07 0 35.07 5.01 40.08 5.01 45.09 5.01"/>
        <polygon points="60.12 5.01 60.12 0 55.11 0 50.1 0 50.1 5.01 55.11 5.01 60.12 5.01"/>
        <rect x="65.13" width="5.01" height="5.01"/>
        <polygon points="15.03 55.11 15.03 50.1 10.02 50.1 10.02 45.09 5.01 45.09 5.01 40.08 5.01 35.07 5.01 30.06 5.01 25.05 0 25.05 0 30.06 0 35.07 0 40.08 0 50.1 5.01 50.1 5.01 55.11 10.02 55.11 10.02 60.12 15.03 60.12 15.03 65.13 20.04 65.13 20.04 55.11 15.03 55.11"/>
      </g>
    </g>
  </g>
</svg>